<?xml version="1.0" standalone="no"?>
<!DOCTYPE svg PUBLIC "-//W3C//DTD SVG 20010904//EN"
 "http://www.w3.org/TR/2001/REC-SVG-20010904/DTD/svg10.dtd">
<svg version="1.0" xmlns="http://www.w3.org/2000/svg"
 width="830.000000pt" height="830.000000pt" viewBox="0 0 830.000000 830.000000"
 preserveAspectRatio="xMidYMid meet">
<metadata>
Created by potrace 1.11, written by Peter Selinger 2001-2013
</metadata>
<g transform="translate(0.000000,830.000000) scale(0.100000,-0.100000)"
fill="#000000" stroke="none">
<path d="M3945 7569 c-719 -32 -1417 -308 -1995 -788 -119 -99 -324 -305 -436
-439 -697 -834 -950 -1929 -687 -2976 158 -630 528 -1247 1005 -1673 161 -145
172 -153 186 -148 7 3 11 1 8 -4 -3 -5 15 -26 40 -46 57 -47 321 -225 333
-225 6 0 12 17 14 38 3 36 4 35 5 -8 l2 -45 103 -57 c589 -325 1300 -462 1983
-383 1395 163 2575 1212 2909 2585 64 266 89 480 89 780 0 250 -8 348 -45 570
-163 980 -792 1871 -1679 2380 -564 323 -1172 469 -1835 439z m579 -223 c528
-75 967 -238 1376 -513 158 -106 227 -160 370 -289 542 -491 882 -1137 1001
-1903 26 -170 36 -542 20 -731 -98 -1104 -722 -2049 -1683 -2549 -314 -164
-616 -262 -1003 -327 -149 -26 -182 -27 -470 -28 -325 -1 -384 4 -630 50 -334
64 -646 175 -936 335 -70 38 -129 69 -133 69 -3 0 -3 -6 -1 -12 2 -7 0 -29 -4
-48 -8 -33 -9 -31 -10 22 l-1 56 -47 28 c-27 15 -106 71 -178 125 -577 434
-976 1030 -1160 1734 -74 281 -99 486 -100 810 0 263 8 369 45 577 161 908
695 1689 1479 2162 383 232 857 391 1296 435 61 6 126 13 145 15 80 9 521 -4
624 -18z m1741 -714 c-6 -7 -35 18 -35 31 0 5 9 2 20 -8 11 -10 18 -20 15 -23z
m-4254 -4929 c-12 -20 -14 -14 -5 12 4 9 9 14 11 11 3 -2 0 -13 -6 -23z m59
-77 c0 -3 -4 -8 -10 -11 -5 -3 -10 -1 -10 4 0 6 5 11 10 11 6 0 10 -2 10 -4z
m30 -78 c0 -5 -4 -8 -10 -8 -5 0 -10 10 -10 23 0 18 2 19 10 7 5 -8 10 -18 10
-22z m3200 -462 c0 -3 -4 -8 -10 -11 -5 -3 -10 -1 -10 4 0 6 5 11 10 11 6 0
10 -2 10 -4z m-1783 -98 c-3 -8 -6 -5 -6 6 -1 11 2 17 5 13 3 -3 4 -12 1 -19z
m358 -148 c3 -6 -1 -7 -9 -4 -18 7 -21 14 -7 14 6 0 13 -4 16 -10z"/>
<path d="M3860 7320 c-626 -58 -1167 -262 -1643 -619 -913 -684 -1374 -1817
-1212 -2976 57 -405 199 -810 405 -1155 61 -103 209 -320 217 -320 5 0 10 -9
-88 140 -145 221 -214 356 -314 615 -162 420 -235 956 -191 1400 45 447 138
780 324 1152 106 212 205 367 360 563 97 122 339 363 467 465 760 606 1741
826 2712 609 429 -96 874 -308 1223 -583 25 -20 39 -28 31 -19 -7 10 -64 56
-126 103 -251 189 -543 346 -841 451 -221 78 -470 135 -719 164 -123 15 -489
21 -605 10z"/>
<path d="M6180 6567 c0 -2 15 -16 33 -33 l32 -29 -29 33 c-28 30 -36 37 -36
29z"/>
<path d="M4327 6025 c-973 -140 -989 -142 -1015 -169 l-27 -26 -5 -1213 -5
-1212 -23 -42 c-24 -47 -78 -88 -132 -103 -19 -5 -105 -21 -190 -35 -191 -32
-256 -60 -344 -150 -98 -99 -146 -211 -146 -340 1 -244 182 -442 422 -461 99
-8 291 26 374 66 82 40 184 146 227 237 l32 68 -4 1141 -4 1142 24 15 c13 8
42 18 64 21 1550 221 1676 238 1690 226 13 -11 15 -108 15 -749 l0 -737 -25
-50 c-17 -33 -38 -57 -67 -75 -54 -34 -50 -33 -252 -68 -209 -37 -267 -62
-354 -155 -108 -116 -155 -250 -132 -378 42 -236 219 -389 450 -390 111 0 276
33 342 69 92 50 218 195 218 251 0 13 7 30 15 38 8 9 16 30 17 47 2 18 3 543
3 1167 1 624 2 1146 2 1160 1 14 -1 196 -5 405 -7 395 -9 412 -52 435 -10 5
-43 10 -72 9 -29 -1 -498 -65 -1041 -144z m951 -347 c2 -197 0 -247 -11 -257
-14 -11 -1663 -251 -1728 -251 -24 0 -39 5 -43 16 -3 9 -6 123 -6 254 0 195 3
240 14 250 8 6 401 67 873 134 712 102 861 121 878 111 19 -12 20 -25 23 -257z
m0 -2320 c8 -8 12 -64 12 -187 0 -164 -2 -180 -24 -226 -27 -59 -46 -77 -106
-104 -60 -26 -229 -54 -296 -49 -77 7 -153 59 -188 129 -45 91 -33 217 26 285
48 54 92 71 274 103 93 16 187 37 209 45 50 18 77 20 93 4z m42 -29 c0 -11 -4
-17 -10 -14 -5 3 -10 13 -10 21 0 8 5 14 10 14 6 0 10 -9 10 -21z m37 -121
c-3 -7 -5 -2 -5 12 0 14 2 19 5 13 2 -7 2 -19 0 -25z m-2067 -144 c16 -40 12
-343 -4 -397 -32 -105 -93 -144 -281 -177 -156 -28 -199 -20 -280 52 -61 53
-79 100 -77 201 3 127 32 186 116 229 22 11 120 35 221 53 100 18 195 40 211
49 46 24 83 21 94 -10z"/>
<path d="M4355 5779 c-451 -65 -821 -118 -822 -119 -2 0 -3 -101 -3 -225 l0
-225 25 0 25 0 0 199 0 199 68 11 c37 6 180 27 317 46 387 54 654 92 975 138
l295 42 3 28 c3 25 1 27 -30 26 -18 -1 -402 -54 -853 -120z"/>
<path d="M5184 3310 c-28 -10 -71 -21 -95 -25 -119 -18 -267 -47 -290 -56
-108 -42 -146 -221 -67 -311 18 -21 25 -25 18 -11 -15 32 -12 128 5 170 20 48
41 71 85 93 32 16 186 49 300 64 25 4 60 11 78 17 28 9 32 15 32 45 0 39 2 39
-66 14z"/>
<path d="M3198 3029 c-25 -10 -115 -30 -200 -44 -84 -14 -168 -30 -186 -36
-49 -16 -100 -65 -112 -107 -15 -57 -12 -169 6 -208 31 -64 39 -58 36 25 -5
98 11 157 53 196 39 38 69 47 262 80 197 33 203 35 203 80 0 40 1 39 -62 14z"/>
<path d="M5527 5786 c2 -211 7 -372 14 -404 8 -41 8 -66 -2 -105 -10 -41 -11
-289 -5 -1155 6 -991 5 -1109 -10 -1165 -36 -142 -146 -277 -277 -342 -57 -28
-100 -39 -209 -57 -134 -21 -140 -21 -225 -4 -54 11 -113 30 -152 51 -57 31
-61 32 -41 10 40 -42 177 -103 263 -117 66 -10 94 -9 195 7 64 10 141 26 171
37 139 47 248 158 314 321 l22 52 1 1160 c0 638 1 1176 2 1195 2 98 -8 758
-12 780 -3 14 -15 39 -28 56 l-23 31 2 -351z"/>
<path d="M4375 5036 l-840 -121 2 -700 c1 -385 5 -868 8 -1073 4 -223 2 -401
-4 -443 -22 -159 -142 -324 -286 -394 -76 -38 -254 -75 -354 -75 -79 0 -174
25 -250 65 l-66 35 35 -30 c87 -73 217 -120 332 -120 88 0 276 35 340 63 116
52 229 178 280 312 22 59 22 67 20 480 -1 231 -3 737 -4 1124 l-3 704 825 118
c454 65 826 119 828 119 1 0 2 14 2 30 0 18 -5 30 -12 29 -7 -1 -391 -56 -853
-123z"/>
<path d="M6995 6041 c227 -348 413 -796 485 -1171 23 -116 39 -219 52 -320 16
-132 16 -608 0 -741 -78 -632 -321 -1221 -709 -1721 -510 -657 -1253 -1117
-2053 -1272 -580 -113 -1171 -76 -1716 107 -199 68 -285 104 -469 197 -176 90
-305 168 -460 277 -49 35 -78 54 -64 41 45 -39 65 -55 150 -115 456 -321 970
-521 1544 -599 182 -25 646 -26 825 -1 652 90 1211 327 1715 726 155 124 427
393 549 546 397 497 643 1077 732 1725 26 183 25 635 0 820 -77 564 -267 1061
-582 1522 -93 136 -92 123 1 -21z"/>
<path d="M1780 1677 c0 -2 15 -16 33 -33 l32 -29 -29 33 c-28 30 -36 37 -36
29z"/>
<path d="M2005 1480 c10 -11 20 -20 23 -20 3 0 -3 9 -13 20 -10 11 -20 20 -23
20 -3 0 3 -9 13 -20z"/>
</g>
</svg>
